#!OML:ASF E:\acrobat2\Project_11_07_03\Capture day 1\Session 1\Acrobat.ASF
:FULLY-SPECIFIED
:DEGREES
1
root 10.0204 21.5926 -18.3182 5.91696 1.28448 -0.00851566
lowerback -10.542 -1.29363 1.16479
upperback -1.71413 -1.75345 -2.11735
thorax 4.0185 -0.84199 -3.10456
lowerneck 2.31208 -12.4946 -8.00663
upperneck 9.38853 -17.6054 8.85466
head 3.93265 -8.75755 3.24593
rclavicle -1.14798e-014 -7.15625e-015
rhumerus -41.6433 -14.2153 -78.6535
rradius 22.2152
rwrist -2.44603
rhand -7.02322 -35.7938
rfingers 7.12502
rthumb 18.8485 -64.9006
lclavicle -1.14798e-014 -7.15625e-015
lhumerus -35.7191 -1.96748 81.4705
lradius 25.1383
lwrist 9.36806
lhand -6.36295 -14.2954
lfingers 7.12502
lthumb 19.4834 14.7484
rfemur 6.36557 10.0825 19.3054
rtibia -2.87284
rfoot -17.9974 -14.6499
rtoes 20.7681
lfemur 3.43974 -3.60525 -15.6529
ltibia 0.476602
lfoot -8.53514 -1.94063
ltoes 5.03449
2
root 10.0235 21.5834 -18.3167 5.94707 1.28604 0.0954721
lowerback -11.1214 -1.58168 -1.14723
upperback -1.34286 -1.93461 -0.48849
thorax 4.85123 -0.971555 -0.155861
lowerneck 3.38256 -12.4264 -8.9541
upperneck 6.88689 -17.3347 8.29448
head 3.01522 -8.71349 3.38787
rclavicle -6.06293e-015 -5.96354e-016
rhumerus -40.8183 -11.6102 -77.5836
rradius 22.009
rwrist 0.143227
rhand -5.33369 -33.4554
rfingers 7.12502
rthumb 20.4728 -62.3961
lclavicle -6.06293e-015 -5.96354e-016
lhumerus -35.0349 -0.378082 83.6119
lradius 25.3211
lwrist 9.41547
lhand -6.0861 -12.6661
lfingers 7.12502
lthumb 19.7496 16.3506
rfemur 6.38195 10.1216 19.1981
rtibia -2.97276
rfoot -18.1 -14.7301
rtoes 20.0662
lfemur 3.39015 -3.52633 -15.7724
ltibia 0.589265
lfoot -8.51342 -2.15536
ltoes 5.48704
3
root 10.028 21.5767 -18.3146 5.98254 1.29372 0.184135
lowerback -11.1377 -1.604 -1.69058
upperback -1.3502 -1.91374 -0.18404
thorax 4.88089 -0.974115 0.469839
lowerneck 4.24313 -12.3831 -8.80856
upperneck 5.17041 -17.1786 7.62649
head 2.53585 -8.68672 3.66982
rclavicle -1.37969e-014 7.95139e-016
rhumerus -40.9196 -12.9847 -75.6447
rradius 22.186
rwrist 3.19295
rhand 2.77408 -31.3218
rfingers 7.12502
rthumb 28.2447 -59.2129
lclavicle -1.37969e-014 7.95139e-016
lhumerus -34.9754 -0.387316 84.1592
lradius 25.7185
lwrist 9.58644
lhand -5.9563 -12.056
lfingers 7.12502
lthumb 19.8744 16.9478
rfemur 6.37097 9.99421 19.0628
rtibia -3.05015
rfoot -18.109 -14.5826
rtoes 20.0012
lfemur 3.37456 -3.54471 -15.909
ltibia 0.57539
lfoot -8.53823 -2.18975
ltoes 5.26337
4
root 10.0305 21.5706 -18.3134 5.98916 1.24826 0.0930108
lowerback -11.1126 -1.54394 -1.31885
upperback -1.33477 -1.86894 -0.388944
thorax 4.86322 -0.943286 0.0544711
lowerneck 4.70901 -12.3638 -8.50546
upperneck 4.41188 -17.1423 7.82422
head 2.18321 -8.67266 3.74867
rclavicle -5.24295e-015 -6.16232e-015
rhumerus -41.0467 -13.1961 -75.9395
rradius 21.8881
rwrist 5.25279
rhand 3.26371 -29.1482
rfingers 7.12502
rthumb 28.7125 -56.961
lclavicle -5.24295e-015 -6.16232e-015
lhumerus -34.8525 -0.608671 83.8561
lradius 25.7722
lwrist 9.40819
lhand -6.36434 -12.8192
lfingers 7.12502
lthumb 19.4821 16.2248
rfemur 6.33622 9.94857 19.1732
rtibia -3.0501
rfoot -17.9764 -14.4911
rtoes 20.033
lfemur 3.43704 -3.67144 -15.8279
ltibia 0.44603
lfoot -8.57281 -2.01233
ltoes 5.52293
5
root 10.0334 21.564 -18.3125 6.0213 1.23096 0.0770263
lowerback -11.183 -1.55122 -1.50304
upperback -1.29752 -1.86177 -0.249472
thorax 4.9519 -0.944838 0.301956
lowerneck 5.33712 -12.3247 -8.51284
upperneck 3.35117 -17.0775 7.94222
head 1.72426 -8.65305 3.87835
rclavicle -8.93289e-015 2.5842e-015
rhumerus -41.067 -12.9927 -75.8329
rradius 21.7689
rwrist 7.00629
rhand 4.19024 -27.1937
rfingers 7.12502
rthumb 29.5973 -54.8532
lclavicle -8.93289e-015 2.5842e-015
lhumerus -34.6861 -0.541923 84.0519
lradius 25.8994
lwrist 9.37324
lhand -6.52531 -12.9587
lfingers 7.12502
lthumb 19.3273 16.1009
rfemur 6.29095 9.90867 19.1867
rtibia -3.06839
rfoot -17.9292 -14.4467
rtoes 19.9308
lfemur 3.449 -3.73965 -15.8273
ltibia 0.365588
lfoot -8.59076 -1.92999
ltoes 5.52358
6
root 10.0362 21.558 -18.3116 6.0569 1.21754 0.0586356
lowerback -11.2236 -1.54862 -1.51017
upperback -1.29035 -1.85737 -0.234569
thorax 4.98268 -0.943056 0.32096
lowerneck 5.85511 -12.2745 -8.53668
upperneck 2.56774 -17.0123 8.18402
head 1.39494 -8.63172 4.03614
rclavicle 1.12748e-014 2.5842e-015
rhumerus -41.1478 -12.6282 -76.1141
rradius 21.6592
rwrist 8.2894
rhand 3.52018 -25.7871
rfingers 7.12502
rthumb 28.9575 -53.5582
lclavicle 1.12748e-014 2.5842e-015
lhumerus -34.5758 -0.52235 84.0574
lradius 26.0071
lwrist 9.3317
lhand -6.71552 -13.2519
lfingers 7.12502
lthumb 19.1444 15.8259
rfemur 6.23763 9.89475 19.204
rtibia -3.0711
rfoot -17.895 -14.4271
rtoes 19.9446
lfemur 3.46705 -3.81988 -15.8233
ltibia 0.254299
lfoot -8.605 -1.81568
ltoes 5.44274
7
root 10.0389 21.5526 -18.3106 6.09172 1.21031 0.0465871
lowerback -11.2681 -1.55135 -1.49377
upperback -1.28898 -1.86188 -0.238879
thorax 5.0083 -0.944974 0.305308
lowerneck 6.26392 -12.2192 -8.61937
upperneck 2.01319 -16.9487 8.45545
head 1.17008 -8.61055 4.19799
rclavicle 1.76546e-014 4.57205e-015
rhumerus -41.2267 -12.0229 -76.6451
rradius 21.5778
rwrist 9.11059
rhand 1.60513 -25.0836
rfingers 7.12502
rthumb 27.1269 -53.1542
lclavicle 1.76546e-014 4.57205e-015
lhumerus -34.4818 -0.449131 84.0174
lradius 26.1104
lwrist 9.29718
lhand -6.89326 -13.5085
lfingers 7.12502
lthumb 18.9735 15.5861
rfemur 6.19047 9.93359 19.2209
rtibia -3.06684
rfoot -17.8991 -14.4538
rtoes 20.0601
lfemur 3.49439 -3.90189 -15.8255
ltibia 0.124078
lfoot -8.6123 -1.69669
ltoes 5.32092
8
root 10.0418 21.5478 -18.3091 6.12317 1.20976 0.0465823
lowerback -11.314 -1.5594 -1.49313
upperback -1.29193 -1.87177 -0.238829
thorax 5.0309 -0.94986 0.302264
lowerneck 6.54498 -12.1677 -8.72292
upperneck 1.68083 -16.8929 8.66951
head 1.0376 -8.59098 4.32581
rclavicle -7.48549e-015 -6.75868e-015
rhumerus -41.2966 -11.3588 -77.2174
rradius 21.5546
rwrist 9.52221
rhand -0.599208 -25.0259
rfingers 7.12502
rthumb 25.0163 -53.4079
lclavicle -7.48549e-015 -6.75868e-015
lhumerus -34.398 -0.316926 83.9733
lradius 26.2129
lwrist 9.27186
lhand -7.0507 -13.6791
lfingers 7.12502
lthumb 18.8221 15.4302
rfemur 6.15769 10.0146 19.228
rtibia -3.0627
rfoot -17.9402 -14.5119
rtoes 20.2782
lfemur 3.53042 -3.9845 -15.8441
ltibia -0.0118516
lfoot -8.62072 -1.5868
ltoes 5.19162
9
root 10.0451 21.5436 -18.3069 6.15056 1.21286 0.0598315
lowerback -11.3628 -1.57032 -1.50772
upperback -1.29574 -1.8836 -0.237063
thorax 5.05481 -0.956011 0.309191
lowerneck 6.70376 -12.1256 -8.79134
upperneck 1.52735 -16.8457 8.76701
head 0.970929 -8.57207 4.39141
rclavicle 3.48494e-015 3.18055e-015
rhumerus -41.3472 -10.8649 -77.6395
rradius 21.5776
rwrist 9.76537
rhand -2.2033 -25.2556
rfingers 7.12502
rthumb 23.4784 -53.8429
lclavicle 3.48494e-015 3.18055e-015
lhumerus -34.312 -0.140364 83.9229
lradius 26.2974
lwrist 9.24348
lhand -7.18567 -13.7688
lfingers 7.12502
lthumb 18.6922 15.3531
rfemur 6.141 10.1157 19.2199
rtibia -3.06246
rfoot -17.9981 -14.5785
rtoes 20.5902
lfemur 3.57082 -4.06216 -15.8827
ltibia -0.138165
lfoot -8.63298 -1.49598
ltoes 5.02787
10
root 10.0485 21.54 -18.3041 6.17107 1.21638 0.075655
lowerback -11.4074 -1.58144 -1.52502
upperback -1.29843 -1.8954 -0.235371
thorax 5.07762 -0.96221 0.317651
lowerneck 6.76253 -12.0954 -8.81795
upperneck 1.50736 -16.8098 8.76474
head 0.952791 -8.55549 4.40227
rclavicle 6.40459e-015 -5.96354e-016
rhumerus -41.3709 -10.571 -77.8974
rradius 21.6244
rwrist 9.8362
rhand -3.16444 -25.6015
rfingers 7.12502
rthumb 22.5561 -54.3038
lclavicle 6.40459e-015 -5.96354e-016
lhumerus -34.2104 0.0747506 83.854
lradius 26.3406
lwrist 9.20398
lhand -7.28017 -13.8133
lfingers 7.12502
lthumb 18.6013 15.3173
rfemur 6.14317 10.2369 19.2128
rtibia -3.07008
rfoot -18.0598 -14.6587
rtoes 20.9558
lfemur 3.61295 -4.13317 -15.9267
ltibia -0.245296
lfoot -8.64319 -1.42947
ltoes 4.95033
